<?xml version="1.0" standalone="no"?>
<!DOCTYPE svg PUBLIC "-//W3C//DTD SVG 20010904//EN"
 "http://www.w3.org/TR/2001/REC-SVG-20010904/DTD/svg10.dtd">
<svg version="1.0" xmlns="http://www.w3.org/2000/svg"
 width="512.000000pt" height="512.000000pt" viewBox="0 0 512.000000 512.000000"
 preserveAspectRatio="xMidYMid meet">
<metadata>
Created by potrace 1.14, written by Peter Selinger 2001-2017
</metadata>
<g transform="translate(0.000000,512.000000) scale(0.100000,-0.100000)"
fill="#000000" stroke="none">
<path d="M25 5095 l-25 -24 0 -1194 c0 -1187 0 -1193 20 -1215 27 -29 83 -29
110 -2 20 20 20 33 20 1165 l0 1145 2410 0 2410 0 -2 -1587 -3 -1588 -24 -60
c-33 -82 -124 -173 -206 -206 -60 -24 -60 -24 -567 -29 -470 -5 -509 -6 -525
-23 -17 -16 -18 -56 -23 -530 l-5 -512 -32 -66 c-39 -80 -111 -150 -191 -187
l-57 -27 -1592 -3 -1593 -2 0 1145 c0 1132 0 1145 -20 1165 -27 27 -83 27
-110 -2 -20 -22 -20 -28 -20 -1215 l0 -1194 25 -25 24 -24 1653 2 1653 3 57
22 c31 12 79 34 105 49 61 34 1435 1402 1500 1493 26 34 58 93 72 130 l26 66
3 1653 2 1653 -24 24 -25 25 -2511 0 -2511 0 -24 -25z m4565 -3748 c0 -1 -184
-187 -410 -412 l-410 -410 0 413 0 412 410 0 c226 0 410 -1 410 -3z"/>
</g>
</svg>
